<?xml version="1.0" encoding="UTF-8"?><svg id="a" xmlns="http://www.w3.org/2000/svg" viewBox="0 0 106.54 104.24"><defs><style>.b{fill:#e7421d;}.c{fill:#fcbf0b;}.d{fill:#f18618;}.e{fill:#1d1d1b;}</style></defs><path class="b" d="M17.97,0L0,79.28l43.58,9.88c6.18,1.38,12.33-2.45,13.8-8.62l4.2-17.77,15.83,3.59c6.22,1.4,12.41-2.5,13.82-8.72l8.85-39.03L17.97,0Z"/><g><path class="d" d="M22.34,22.73V104.24h46.74c6.74-.01,11.47-4.48,16.11-9.37l12.96-13.72c4.3-4.54,8.39-8.86,8.38-15.12V22.73H22.34Z"/><path class="c" d="M22.34,22.73V104.03h44.69c6.33-.02,11.48-5.12,11.55-11.45l.17-18.26h16.23c6.38,0,11.55-5.18,11.56-11.56V22.73H22.34Z"/></g><path class="e" d="M71.43,40.89c-1.41-.92-2.53-2.22-3.22-3.75v-1.42c0-1.43-1.16-2.59-2.59-2.59s-2.59,1.16-2.59,2.59v39.36c-2.52-.43-5.1-.17-7.49,.74-5.65,2.05-9.12,6.77-7.76,10.53,1.36,3.76,7.06,5.18,12.71,3.11,3.93-1.46,6.8-4.15,7.71-6.97v-28.02c.48,.41,1,.78,1.54,1.1,8.68,5.13,3.88,13.47,8.14,13.47,5.36,.04,5.58-20.13-6.46-28.16Z"/></svg>